<?xml version="1.0" encoding="utf-8"?>
<!-- Generator: Adobe Illustrator 16.0.0, SVG Export Plug-In . SVG Version: 6.00 Build 0)  -->
<!DOCTYPE svg PUBLIC "-//W3C//DTD SVG 1.1//EN" "http://www.w3.org/Graphics/SVG/1.1/DTD/svg11.dtd">
<svg version="1.1" id="Layer_1" xmlns="http://www.w3.org/2000/svg" xmlns:xlink="http://www.w3.org/1999/xlink" x="0px" y="0px"
	 width="100px" height="77.036px" viewBox="0 0 100 77.036" enable-background="new 0 0 100 77.036" xml:space="preserve">
<circle fill="#333333" cx="50" cy="3.125" r="3.125"/>
<circle fill="#333333" cx="40.021" cy="4.952" r="3.125"/>
<circle fill="#333333" cx="31.287" cy="9.998" r="3.125"/>
<circle fill="#333333" cx="24.803" cy="17.725" r="3.125"/>
<path fill="#333333" d="M45.67,53.313c0-0.004-0.002-0.005-0.004-0.01l-4.022-10.059c-0.249-11.273-9.479-20.374-20.811-20.374
	C9.347,22.872,0,32.219,0,43.706c0,5.812,2.398,11.068,6.25,14.853v18.479h25V69.79c5.743,0,9.375-3.676,9.375-9.42v-4.166h3.125
	c1.151,0,2.083-0.933,2.083-2.084C45.833,53.863,45.67,53.313,45.67,53.313z M12.5,52.04c-1.725,0-3.125-1.4-3.125-3.125
	c0-1.727,1.4-3.125,3.125-3.125s3.125,1.398,3.125,3.125C15.625,50.639,14.225,52.04,12.5,52.04z M12.5,43.706
	c-1.725,0-3.125-1.399-3.125-3.125s1.4-3.125,3.125-3.125s3.125,1.399,3.125,3.125C15.625,42.306,14.225,43.706,12.5,43.706z
	 M20.833,52.04c-1.726,0-3.125-1.4-3.125-3.125c0-1.727,1.399-3.125,3.125-3.125c1.725,0,3.125,1.398,3.125,3.125
	C23.958,50.639,22.559,52.04,20.833,52.04z M20.833,43.706c-1.726,0-3.125-1.399-3.125-3.125s1.399-3.125,3.125-3.125
	c1.725,0,3.125,1.399,3.125,3.125C23.958,42.306,22.559,43.706,20.833,43.706z M20.833,35.372c-1.726,0-3.125-1.4-3.125-3.125
	s1.399-3.125,3.125-3.125c1.725,0,3.125,1.4,3.125,3.125S22.559,35.372,20.833,35.372z M29.167,52.04
	c-1.725,0-3.125-1.4-3.125-3.125c0-1.727,1.4-3.125,3.125-3.125c1.726,0,3.125,1.398,3.125,3.125
	C32.292,50.639,30.892,52.04,29.167,52.04z M29.167,43.706c-1.725,0-3.125-1.399-3.125-3.125s1.4-3.125,3.125-3.125
	c1.726,0,3.125,1.399,3.125,3.125C32.292,42.306,30.892,43.706,29.167,43.706z"/>
<circle fill="#333333" cx="59.855" cy="4.952" r="3.125"/>
<circle fill="#333333" cx="68.59" cy="9.998" r="3.125"/>
<circle fill="#333333" cx="75.073" cy="17.725" r="3.125"/>
<path fill="#333333" d="M79.167,22.872c-11.333,0-20.562,9.1-20.812,20.373l-4.021,10.06c-0.002,0.005-0.005,0.006-0.005,0.01
	c0,0-0.162,0.55-0.162,0.806c0,1.151,0.933,2.084,2.083,2.084h3.125v4.166c0,5.744,3.632,9.42,9.375,9.42v7.248h25V58.558
	c3.852-3.783,6.25-9.04,6.25-14.853C100,32.219,90.652,22.872,79.167,22.872z M79.167,52.04c-1.726,0-3.125-1.4-3.125-3.125
	c0-1.727,1.399-3.125,3.125-3.125s3.125,1.398,3.125,3.125C82.292,50.639,80.893,52.04,79.167,52.04z M79.167,43.706
	c-1.726,0-3.125-1.399-3.125-3.125s1.399-3.125,3.125-3.125s3.125,1.399,3.125,3.125C82.292,42.306,80.893,43.706,79.167,43.706z
	 M79.167,35.372c-1.726,0-3.125-1.4-3.125-3.125s1.399-3.125,3.125-3.125s3.125,1.4,3.125,3.125S80.893,35.372,79.167,35.372z"/>
</svg>
