<?xml version="1.0" encoding="utf-8"?>
<!-- Generator: Adobe Illustrator 16.0.0, SVG Export Plug-In . SVG Version: 6.00 Build 0)  -->
<!DOCTYPE svg PUBLIC "-//W3C//DTD SVG 1.1//EN" "http://www.w3.org/Graphics/SVG/1.1/DTD/svg11.dtd">
<svg version="1.1" id="Layer_1" xmlns="http://www.w3.org/2000/svg" xmlns:xlink="http://www.w3.org/1999/xlink" x="0px" y="0px"
	 width="73.233px" height="68px" viewBox="0 0 73.233 68" enable-background="new 0 0 73.233 68" xml:space="preserve">
<g>
	<defs>
		<rect id="SVGID_1_" y="1" width="73.233" height="66.291"/>
	</defs>
	<clipPath id="SVGID_2_">
		<use xlink:href="#SVGID_1_"  overflow="visible"/>
	</clipPath>
	<path clip-path="url(#SVGID_2_)" fill="#BE4C35" d="M68.273,5.719c-8.172-8.1-23.153-4.771-31.642,2.833
		C28.148,0.93,13.141-2.416,4.959,5.694c-8.44,8.353-5.861,29.687,5.862,43.048c7.35,8.377,13.533,12.244,13.533,12.244
		c5.363,3.748,10.444,6.229,12.235,6.275v0.029c1.744,0,6.876-2.496,12.289-6.277c0,0,6.185-3.867,13.535-12.246
		C74.134,35.408,76.714,14.073,68.273,5.719"/>
	<path clip-path="url(#SVGID_2_)" fill="#DB583E" d="M4.959,5.707c-8.44,8.354-5.86,29.688,5.862,43.049
		C18.171,57.133,24.355,61,24.355,61c5.413,3.783,10.544,6.277,12.289,6.277V8.577C28.163,0.946,13.144-2.407,4.959,5.707"/>
</g>
</svg>
