<?xml version="1.0" encoding="utf-8"?>
<!-- Generator: Adobe Illustrator 16.0.0, SVG Export Plug-In . SVG Version: 6.00 Build 0)  -->
<!DOCTYPE svg PUBLIC "-//W3C//DTD SVG 1.1//EN" "http://www.w3.org/Graphics/SVG/1.1/DTD/svg11.dtd">
<svg version="1.1" id="Layer_1" xmlns="http://www.w3.org/2000/svg" xmlns:xlink="http://www.w3.org/1999/xlink" x="0px" y="0px"
	 width="65.75px" height="76.768px" viewBox="18.5 0.268 65.75 76.768" enable-background="new 18.5 0.268 65.75 76.768"
	 xml:space="preserve">
<g>
	<path fill="#333333" d="M80.938,4.146c-0.776,0.302-18.587,8.772-18.587,8.772c-1.573,0.746-2.734,2.845-2.734,4.584v54.307
		c0,1.058,0.345,1.688,1.153,1.688c0.299,0,0.435-0.085,0.783-0.251l17.612-8.524c1.571-0.744,2.586-2.844,2.586-4.584V5.834
		C81.751,4.777,81.768,3.825,80.938,4.146z"/>
	<path fill="#333333" d="M78.578,3.241c1.825-0.867,1.627-1.46-0.396-1.46h-28.28c-2.022,0-5.176,0.579-7.011,1.427l-18.428,8.524
		c-1.834,0.849-3.213,3.139-3.213,5.16v54.885c0,2.022,1.411,3.785,3.432,3.785h28.951c2.022,0,3.77-1.763,3.77-3.785V16.892
		c0-2.021,1.448-4.327,3.273-5.195L78.578,3.241z M47.811,37.195H28.629v-2.213h19.182V37.195z M47.811,32.031H28.629v-2.214h19.182
		V32.031z M47.811,26.866H28.629v-2.214h19.182V26.866z"/>
</g>
</svg>
