<?xml version="1.0" encoding="utf-8"?>
<!-- Generator: Adobe Illustrator 16.0.0, SVG Export Plug-In . SVG Version: 6.00 Build 0)  -->
<!DOCTYPE svg PUBLIC "-//W3C//DTD SVG 1.1//EN" "http://www.w3.org/Graphics/SVG/1.1/DTD/svg11.dtd">
<svg version="1.1" id="Layer_1" xmlns="http://www.w3.org/2000/svg" xmlns:xlink="http://www.w3.org/1999/xlink" x="0px" y="0px"
	 width="50.926px" height="68px" viewBox="0 0 50.926 68" enable-background="new 0 0 50.926 68" xml:space="preserve">
<g>
	<defs>
		<rect id="SVGID_1_" width="50.926" height="68"/>
	</defs>
	<clipPath id="SVGID_2_">
		<use xlink:href="#SVGID_1_"  overflow="visible"/>
	</clipPath>
	<path clip-path="url(#SVGID_2_)" fill="#6A8840" d="M26.042,0C16.209,0,8.237,7.971,8.237,17.805V43.38h4.743V18.574
		c0-7.891,5.849-14.288,13.062-14.288s13.063,6.397,13.063,14.288V43.38h4.743V17.805C43.849,7.971,35.875,0,26.042,0"/>
	<path clip-path="url(#SVGID_2_)" fill="#89AC5B" d="M50.926,65.086c0,1.603-1.312,2.914-2.913,2.914H2.914
		C1.311,68,0,66.688,0,65.086V32.99c0-1.603,1.311-2.914,2.914-2.914h45.099c1.602,0,2.913,1.311,2.913,2.914V65.086z"/>
	<path clip-path="url(#SVGID_2_)" fill="#6A8840" d="M30.642,43.056c0-2.861-2.317-5.18-5.178-5.18c-2.86,0-5.18,2.318-5.18,5.18
		c0,2.262,1.459,4.166,3.481,4.871l-3.481,6.307h10.358l-3.48-6.307C29.184,47.222,30.642,45.317,30.642,43.056"/>
</g>
</svg>
