<?xml version="1.0" encoding="utf-8"?>
<!-- Generator: Adobe Illustrator 16.0.0, SVG Export Plug-In . SVG Version: 6.00 Build 0)  -->
<!DOCTYPE svg PUBLIC "-//W3C//DTD SVG 1.1//EN" "http://www.w3.org/Graphics/SVG/1.1/DTD/svg11.dtd">
<svg version="1.1" id="Layer_1" xmlns="http://www.w3.org/2000/svg" xmlns:xlink="http://www.w3.org/1999/xlink" x="0px" y="0px"
	 width="182.361px" height="42.253px" viewBox="0 0 182.361 42.253" enable-background="new 0 0 182.361 42.253"
	 xml:space="preserve">
<path fill="#25AD60" d="M16.736,1.721c4.51,0,8.07,2.255,10.147,4.689l-1.662,1.78c-2.077-2.374-4.926-3.977-8.486-3.977
	c-8.605,0-13.887,6.825-13.887,17.685c0,10.858,5.222,17.863,13.649,17.863c4.036,0,7.002-1.603,9.852-4.808l1.661,1.721
	c-3.026,3.442-6.588,5.579-11.632,5.579C6.706,42.253,0,34.36,0,21.897C0,9.495,6.766,1.721,16.736,1.721z"/>
<path fill="#25AD60" d="M29.91,13.055h2.611v17.924c0,6.054,1.898,8.9,6.468,8.9c3.383,0,5.875-1.779,9.198-5.815V13.055h2.612
	v28.486h-2.195l-0.297-4.749h-0.119c-2.789,3.267-5.756,5.461-9.673,5.461c-5.875,0-8.604-3.56-8.604-10.919V13.055z"/>
<path fill="#25AD60" d="M53.409,13.767h2.255l0.237,5.281h0.178c1.899-3.5,4.688-5.993,8.069-5.993c1.07,0,1.9,0.118,2.85,0.593
	l-0.594,2.374c-0.95-0.356-1.483-0.475-2.611-0.475c-2.551,0-5.578,1.958-7.774,7.299v19.406h-2.61V13.767z"/>
<path fill="#25AD60" d="M85.277,23.678c0.117-4.331-1.128-9.02-6.708-9.02c-3.856,0-7.18,1.898-9.079,3.323l-1.187-1.958
	c2.019-1.424,5.935-3.68,10.564-3.68c6.764,0,9.019,4.866,9.019,10.978v18.221h-2.194l-0.298-3.679h-0.117
	c-2.91,2.313-6.351,4.391-10.089,4.391c-4.51,0-8.308-2.435-8.308-7.835C66.879,28.128,72.636,25.104,85.277,23.678z M75.604,39.997
	c3.264,0,6.172-1.602,9.673-4.626v-9.677C73.585,27.061,69.609,29.79,69.609,34.3C69.609,38.396,72.338,39.997,75.604,39.997z"/>
<path fill="#393F4B" d="M107.115,1.898c4.686,0,8.364,2.255,10.621,4.807l-2.789,3.146c-2.019-2.197-4.511-3.621-7.773-3.621
	c-7.419,0-12.284,6.053-12.284,15.726c0,9.79,4.688,15.963,12.046,15.963c3.739,0,6.47-1.541,8.962-4.331l2.788,3.026
	c-3.085,3.561-6.885,5.638-11.868,5.638c-9.791,0-17.032-7.479-17.032-20.178C89.785,9.554,97.144,1.898,107.115,1.898z"/>
<path fill="#393F4B" d="M119.516,0h4.868v11.512l-0.179,5.934c2.729-2.611,5.636-4.747,9.613-4.747
	c6.053,0,8.783,3.916,8.783,11.274v18.279h-4.867V24.626c0-5.399-1.66-7.714-5.46-7.714c-2.965,0-4.984,1.543-7.891,4.451v20.89
	h-4.868V0z"/>
<path fill="#393F4B" d="M162.184,23.262c0-3.678-1.246-7.239-5.935-7.239c-3.382,0-6.351,1.542-8.604,3.084l-1.957-3.381
	c2.669-1.722,6.706-3.74,11.333-3.74c7.063,0,10.03,4.689,10.03,11.87v17.685h-4.035L162.6,38.1h-0.12
	c-2.789,2.253-5.993,4.153-9.554,4.153c-4.865,0-8.485-3.027-8.485-8.189C144.44,27.773,149.898,24.627,162.184,23.262z
	 M154.291,38.337c2.789,0,5.104-1.365,7.893-3.858v-8.012c-9.673,1.188-12.938,3.561-12.938,7.241
	C149.246,36.972,151.442,38.337,154.291,38.337z"/>
<path fill="#393F4B" d="M168.757,4.628h4.938V12.7h7.774v3.976h-7.774v16.024c0,3.56,1.128,5.577,4.45,5.577
	c1.012,0,2.316-0.414,3.266-0.771l0.95,3.679c-1.604,0.534-3.562,1.069-5.341,1.069c-6.173,0-8.252-3.916-8.252-9.614V16.675"/>
</svg>
