<?xml version="1.0" encoding="utf-8"?>
<!-- Generator: Adobe Illustrator 17.0.0, SVG Export Plug-In . SVG Version: 6.00 Build 0)  -->
<!DOCTYPE svg PUBLIC "-//W3C//DTD SVG 1.1//EN" "http://www.w3.org/Graphics/SVG/1.1/DTD/svg11.dtd">
<svg version="1.1" id="Layer_1" xmlns="http://www.w3.org/2000/svg" xmlns:xlink="http://www.w3.org/1999/xlink" x="0px" y="0px"
	 width="220px" height="72.238px" viewBox="0 0 220 72.238" enable-background="new 0 0 220 72.238" xml:space="preserve">
<g>
	<g>
		<path fill="none" stroke="#3A404C" stroke-width="2" stroke-miterlimit="10" d="M1.458,28.46
			c0-14.806,10.689-26.984,26.244-26.984C43.251,1.477,54,13.135,54,28.088v0.005V57H30.18h-0.175
			C14.54,57,1.458,43.258,1.458,28.46z"/>
	</g>
	<g>
		<circle fill="#27AE61" cx="29.569" cy="21.863" r="3.518"/>
		<circle fill="#27AE61" cx="20.248" cy="23.831" r="3.518"/>
		<circle fill="#27AE61" cx="38.89" cy="23.831" r="3.518"/>
		<path fill="#3A404C" d="M41.574,28.616c0-0.411-0.334-0.616-0.746-0.616h-3.728c-0.412,0-0.746,0.205-0.746,0.616l-0.198,1.838
			c-0.427-0.262-0.246-0.141-0.791-0.572c-1.199-0.948-1.902-1.795-2.283-2.325l0.064-0.709c0-0.411-0.334-0.847-0.746-0.847h-5.666
			c-0.412,0-0.745,0.425-0.745,0.836l0.069,0.819c-0.445,0.53-1.178,1.297-2.317,2.138c-0.478,0.353-0.257,0.145-0.658,0.376
			l-0.153-1.556c0-0.413-0.334-0.612-0.746-0.612h-3.727c-0.412,0-0.746,0.205-0.746,0.616l-1.044,10.887
			c0,0.413,0.333,1.497,0.745,1.497h5.666c0.412,0,0.746-1.172,0.746-1.584l-0.498-6.059c0.463-0.531,0.528-0.97,1.603-1.762
			c0.472-0.346,0.912-0.75,1.376-0.996l0.578,6.6c0,0.412,0.334,0.801,0.746,0.801h3.728c0.412,0,0.746-0.441,0.746-0.853
			l0.689-6.749c0.454,0.265,0.927,0.566,1.404,0.945c1.239,0.979,1.294,1.351,1.668,1.883l-0.554,6.196
			c0,0.411,0.334,1.578,0.746,1.578h5.667c0.411,0,0.745-1.084,0.745-1.497L41.574,28.616z"/>
	</g>
</g>
<g>
	<path fill="#3A404C" d="M61.372,60.589h2.092c2.577,0,3.954,1.492,3.954,4.146c0,2.666-1.377,4.223-3.903,4.223h-2.143V60.589z
		 M63.387,68.09c1.952,0,2.934-1.237,2.934-3.355c0-2.104-0.982-3.278-2.934-3.278h-0.957v6.634H63.387z"/>
	<path fill="#3A404C" d="M68.925,60.806c0-0.408,0.319-0.676,0.727-0.676s0.728,0.268,0.728,0.676c0,0.396-0.319,0.676-0.728,0.676
		S68.925,61.201,68.925,60.806z M69.117,62.758h1.046v6.199h-1.046V62.758z"/>
	<path fill="#3A404C" d="M72.689,68.74v-0.051c-0.307-0.191-0.549-0.523-0.549-1.008c0-0.523,0.357-0.932,0.676-1.148v-0.051
		c-0.408-0.332-0.804-0.932-0.804-1.671c0-1.353,1.071-2.207,2.334-2.207c0.344,0,0.65,0.063,0.88,0.153h2.156v0.804h-1.276
		c0.293,0.28,0.51,0.752,0.51,1.275c0,1.326-1.008,2.155-2.271,2.155c-0.306,0-0.651-0.076-0.931-0.217
		c-0.217,0.191-0.396,0.396-0.396,0.74c0,0.396,0.255,0.676,1.097,0.676h1.199c1.441,0,2.168,0.446,2.168,1.48
		c0,1.147-1.211,2.143-3.138,2.143c-1.518,0-2.564-0.6-2.564-1.671C71.784,69.62,72.128,69.123,72.689,68.74z M74.5,71.087
		c1.187,0,1.964-0.612,1.964-1.263c0-0.574-0.446-0.766-1.25-0.766h-1.071c-0.243,0-0.536-0.025-0.804-0.102
		c-0.446,0.319-0.638,0.688-0.638,1.046C72.702,70.666,73.378,71.087,74.5,71.087z M75.662,64.812c0-0.906-0.587-1.441-1.314-1.441
		s-1.314,0.535-1.314,1.441c0,0.905,0.6,1.479,1.314,1.479S75.662,65.717,75.662,64.812z"/>
	<path fill="#3A404C" d="M78.495,60.806c0-0.408,0.319-0.676,0.727-0.676s0.728,0.268,0.728,0.676c0,0.396-0.319,0.676-0.728,0.676
		S78.495,61.201,78.495,60.806z M78.686,62.758h1.046v6.199h-1.046V62.758z"/>
	<path fill="#3A404C" d="M82.003,63.612h-0.918v-0.791l0.97-0.063l0.127-1.735h0.88v1.735h1.671v0.854h-1.671v3.444
		c0,0.765,0.243,1.199,0.957,1.199c0.217,0,0.498-0.09,0.702-0.166l0.204,0.791c-0.345,0.114-0.766,0.229-1.148,0.229
		c-1.327,0-1.773-0.842-1.773-2.066V63.612z"/>
	<path fill="#3A404C" d="M89.417,65.028c0-0.791-0.268-1.557-1.276-1.557c-0.727,0-1.365,0.332-1.85,0.663l-0.421-0.727
		c0.574-0.37,1.441-0.804,2.437-0.804c1.518,0,2.156,1.008,2.156,2.551v3.802h-0.868l-0.089-0.74H89.48
		c-0.6,0.485-1.288,0.894-2.054,0.894c-1.046,0-1.824-0.65-1.824-1.761C85.602,65.998,86.776,65.321,89.417,65.028z M87.72,68.269
		c0.6,0,1.097-0.294,1.697-0.829v-1.723c-2.08,0.255-2.781,0.766-2.781,1.557C86.635,67.975,87.107,68.269,87.72,68.269z"/>
	<path fill="#3A404C" d="M92.441,59.875h1.046v7.908c0,0.332,0.14,0.459,0.293,0.459c0.064,0,0.115,0,0.23-0.025l0.14,0.791
		c-0.14,0.064-0.319,0.103-0.6,0.103c-0.791,0-1.11-0.498-1.11-1.403V59.875z"/>
	<path fill="#3A404C" d="M96.74,69.48v2.092h-1.046v-8.814h0.868l0.089,0.714h0.038c0.562-0.472,1.25-0.867,1.977-0.867
		c1.595,0,2.449,1.237,2.449,3.163c0,2.105-1.263,3.343-2.679,3.343c-0.574,0-1.148-0.269-1.722-0.715L96.74,69.48z M98.258,68.229
		c1.021,0,1.773-0.931,1.773-2.462c0-1.364-0.459-2.283-1.633-2.283c-0.523,0-1.046,0.294-1.659,0.842v3.253
		C97.302,68.052,97.85,68.229,98.258,68.229z"/>
	<path fill="#3A404C" d="M102.559,63.408c0.574-0.37,1.429-0.804,2.347-0.804s1.518,0.51,1.773,1.313
		c0.485-0.804,1.199-1.313,2.041-1.313c1.518,0,2.36,1.147,2.36,2.921c0,0.229-0.013,0.434-0.038,0.587h-4.018
		c0.051,1.288,0.867,2.144,1.926,2.144c0.599,0,1.046-0.217,1.505-0.511l0.383,0.728c-0.536,0.344-1.174,0.638-2.016,0.638
		c-1.033,0-1.709-0.549-2.181-1.161c-0.842,0.753-1.735,1.161-2.526,1.161c-1.046,0-1.824-0.65-1.824-1.761
		c0-1.352,1.174-2.028,3.75-2.321c0-0.791-0.242-1.557-1.263-1.557c-0.676,0-1.314,0.332-1.799,0.663L102.559,63.408z
		 M104.409,68.269c0.574,0,1.314-0.345,1.875-0.957c-0.14-0.319-0.229-0.804-0.242-1.275v-0.319
		c-1.964,0.255-2.717,0.766-2.717,1.557C103.324,67.975,103.796,68.269,104.409,68.269z M110.162,65.411
		c0-1.276-0.523-1.978-1.467-1.978c-0.854,0-1.556,0.766-1.671,1.978H110.162z"/>
	<path fill="#3A404C" d="M114.858,62.604c0.715,0,1.187,0.268,1.735,0.714l-0.052-1.059v-2.385h1.06v9.082h-0.868l-0.089-0.728
		h-0.038c-0.485,0.473-1.148,0.881-1.876,0.881c-1.556,0-2.563-1.174-2.563-3.24C112.167,63.854,113.442,62.604,114.858,62.604z
		 M114.961,68.229c0.573,0,1.071-0.28,1.581-0.854v-3.24c-0.522-0.472-0.995-0.65-1.505-0.65c-0.995,0-1.786,0.957-1.786,2.373
		C113.251,67.337,113.876,68.229,114.961,68.229z"/>
	<path fill="#3A404C" d="M123.203,65.028c0-0.791-0.268-1.557-1.275-1.557c-0.727,0-1.365,0.332-1.85,0.663l-0.421-0.727
		c0.574-0.37,1.441-0.804,2.437-0.804c1.518,0,2.155,1.008,2.155,2.551v3.802h-0.867l-0.089-0.74h-0.025
		c-0.6,0.485-1.289,0.894-2.054,0.894c-1.047,0-1.824-0.65-1.824-1.761C119.39,65.998,120.562,65.321,123.203,65.028z
		 M121.507,68.269c0.6,0,1.097-0.294,1.696-0.829v-1.723c-2.079,0.255-2.78,0.766-2.78,1.557
		C120.423,67.975,120.895,68.269,121.507,68.269z"/>
	<path fill="#3A404C" d="M126.662,68.74v-0.051c-0.306-0.191-0.548-0.523-0.548-1.008c0-0.523,0.356-0.932,0.676-1.148v-0.051
		c-0.408-0.332-0.804-0.932-0.804-1.671c0-1.353,1.071-2.207,2.334-2.207c0.345,0,0.651,0.063,0.881,0.153h2.155v0.804h-1.275
		c0.293,0.28,0.511,0.752,0.511,1.275c0,1.326-1.008,2.155-2.271,2.155c-0.306,0-0.65-0.076-0.931-0.217
		c-0.217,0.191-0.396,0.396-0.396,0.74c0,0.396,0.255,0.676,1.097,0.676h1.199c1.441,0,2.169,0.446,2.169,1.48
		c0,1.147-1.212,2.143-3.139,2.143c-1.518,0-2.563-0.6-2.563-1.671C125.757,69.62,126.102,69.123,126.662,68.74z M128.474,71.087
		c1.187,0,1.965-0.612,1.965-1.263c0-0.574-0.446-0.766-1.25-0.766h-1.072c-0.242,0-0.535-0.025-0.804-0.102
		c-0.446,0.319-0.638,0.688-0.638,1.046C126.675,70.666,127.352,71.087,128.474,71.087z M129.635,64.812
		c0-0.906-0.587-1.441-1.314-1.441c-0.727,0-1.313,0.535-1.313,1.441c0,0.905,0.6,1.479,1.313,1.479
		C129.035,66.291,129.635,65.717,129.635,64.812z"/>
	<path fill="#3A404C" d="M134.892,62.604c1.518,0,2.87,1.187,2.87,3.266c0,2.054-1.353,3.24-2.87,3.24
		c-1.519,0-2.87-1.187-2.87-3.24C132.021,63.791,133.373,62.604,134.892,62.604z M134.892,68.242c1.071,0,1.786-0.956,1.786-2.372
		c0-1.429-0.715-2.398-1.786-2.398c-1.059,0-1.786,0.97-1.786,2.398C133.105,67.286,133.833,68.242,134.892,68.242z"/>
	<path fill="#3A404C" d="M139.83,68.74v-0.051c-0.306-0.191-0.548-0.523-0.548-1.008c0-0.523,0.356-0.932,0.676-1.148v-0.051
		c-0.408-0.332-0.804-0.932-0.804-1.671c0-1.353,1.071-2.207,2.334-2.207c0.345,0,0.651,0.063,0.881,0.153h2.155v0.804h-1.275
		c0.293,0.28,0.511,0.752,0.511,1.275c0,1.326-1.008,2.155-2.271,2.155c-0.306,0-0.65-0.076-0.931-0.217
		c-0.217,0.191-0.396,0.396-0.396,0.74c0,0.396,0.255,0.676,1.097,0.676h1.199c1.441,0,2.169,0.446,2.169,1.48
		c0,1.147-1.212,2.143-3.139,2.143c-1.518,0-2.563-0.6-2.563-1.671C138.925,69.62,139.27,69.123,139.83,68.74z M141.642,71.087
		c1.187,0,1.965-0.612,1.965-1.263c0-0.574-0.446-0.766-1.25-0.766h-1.072c-0.242,0-0.535-0.025-0.804-0.102
		c-0.446,0.319-0.638,0.688-0.638,1.046C139.843,70.666,140.52,71.087,141.642,71.087z M142.803,64.812
		c0-0.906-0.587-1.441-1.314-1.441c-0.727,0-1.313,0.535-1.313,1.441c0,0.905,0.6,1.479,1.313,1.479
		C142.203,66.291,142.803,65.717,142.803,64.812z"/>
	<path fill="#3A404C" d="M145.636,60.806c0-0.408,0.319-0.676,0.728-0.676s0.727,0.268,0.727,0.676c0,0.396-0.318,0.676-0.727,0.676
		S145.636,61.201,145.636,60.806z M145.827,62.758h1.046v6.199h-1.046V62.758z"/>
	<path fill="#3A404C" d="M148.8,67.554c0.536,0.434,1.085,0.74,1.824,0.74c0.816,0,1.225-0.434,1.225-0.97
		c0-0.638-0.739-0.918-1.416-1.174c-0.88-0.318-1.85-0.739-1.85-1.785c0-0.995,0.791-1.761,2.131-1.761
		c0.778,0,1.454,0.318,1.926,0.701l-0.497,0.664c-0.421-0.319-0.868-0.549-1.416-0.549c-0.778,0-1.136,0.421-1.136,0.893
		c0,0.587,0.677,0.804,1.378,1.071c0.893,0.332,1.888,0.702,1.888,1.876c0,1.008-0.804,1.85-2.271,1.85
		c-0.88,0-1.722-0.37-2.309-0.854L148.8,67.554z"/>
	<path fill="#3A404C" d="M154.312,59.875h1.033v6.148h0.038l2.641-3.266h1.161l-2.079,2.487l2.359,3.712h-1.147l-1.812-2.985
		l-1.161,1.353v1.633h-1.033V59.875z"/>
	<path fill="#3A404C" d="M163.206,62.758h0.867l0.09,1.122h0.038c0.421-0.778,1.059-1.275,1.761-1.275
		c0.268,0,0.459,0.038,0.663,0.128l-0.204,0.918c-0.204-0.063-0.345-0.102-0.6-0.102c-0.523,0-1.148,0.382-1.569,1.428v3.98h-1.046
		V62.758z"/>
	<path fill="#3A404C" d="M170.823,65.028c0-0.791-0.268-1.557-1.275-1.557c-0.728,0-1.365,0.332-1.85,0.663l-0.421-0.727
		c0.574-0.37,1.441-0.804,2.437-0.804c1.518,0,2.155,1.008,2.155,2.551v3.802h-0.867l-0.089-0.74h-0.025
		c-0.6,0.485-1.289,0.894-2.054,0.894c-1.047,0-1.824-0.65-1.824-1.761C167.01,65.998,168.183,65.321,170.823,65.028z
		 M169.127,68.269c0.6,0,1.097-0.294,1.696-0.829v-1.723c-2.079,0.255-2.78,0.766-2.78,1.557
		C168.043,67.975,168.515,68.269,169.127,68.269z M168.515,60.856c0-0.701,0.497-1.173,1.187-1.173c0.701,0,1.199,0.472,1.199,1.173
		c0,0.715-0.498,1.187-1.199,1.187C169.012,62.043,168.515,61.571,168.515,60.856z M170.313,60.856c0-0.421-0.269-0.701-0.612-0.701
		c-0.332,0-0.612,0.28-0.612,0.701c0,0.434,0.28,0.715,0.612,0.715C170.045,61.571,170.313,61.29,170.313,60.856z"/>
	<path fill="#3A404C" d="M176.094,62.604c0.715,0,1.187,0.268,1.735,0.714l-0.052-1.059v-2.385h1.06v9.082h-0.868l-0.089-0.728
		h-0.038c-0.485,0.473-1.148,0.881-1.875,0.881c-1.557,0-2.564-1.174-2.564-3.24C173.402,63.854,174.678,62.604,176.094,62.604z
		 M176.196,68.229c0.573,0,1.071-0.28,1.581-0.854v-3.24c-0.522-0.472-0.994-0.65-1.505-0.65c-0.995,0-1.786,0.957-1.786,2.373
		C174.486,67.337,175.111,68.229,176.196,68.229z"/>
	<path fill="#3A404C" d="M181.364,68.74v-0.051c-0.306-0.191-0.548-0.523-0.548-1.008c0-0.523,0.356-0.932,0.676-1.148v-0.051
		c-0.408-0.332-0.804-0.932-0.804-1.671c0-1.353,1.071-2.207,2.334-2.207c0.345,0,0.651,0.063,0.881,0.153h2.155v0.804h-1.275
		c0.293,0.28,0.51,0.752,0.51,1.275c0,1.326-1.007,2.155-2.271,2.155c-0.306,0-0.65-0.076-0.931-0.217
		c-0.217,0.191-0.396,0.396-0.396,0.74c0,0.396,0.255,0.676,1.097,0.676h1.199c1.441,0,2.169,0.446,2.169,1.48
		c0,1.147-1.212,2.143-3.139,2.143c-1.518,0-2.563-0.6-2.563-1.671C180.459,69.62,180.803,69.123,181.364,68.74z M183.176,71.087
		c1.187,0,1.965-0.612,1.965-1.263c0-0.574-0.446-0.766-1.25-0.766h-1.072c-0.242,0-0.535-0.025-0.804-0.102
		c-0.446,0.319-0.638,0.688-0.638,1.046C181.377,70.666,182.054,71.087,183.176,71.087z M184.337,64.812
		c0-0.906-0.587-1.441-1.314-1.441c-0.727,0-1.313,0.535-1.313,1.441c0,0.905,0.6,1.479,1.313,1.479
		C183.737,66.291,184.337,65.717,184.337,64.812z"/>
	<path fill="#3A404C" d="M187.17,60.806c0-0.408,0.319-0.676,0.728-0.676s0.727,0.268,0.727,0.676c0,0.396-0.318,0.676-0.727,0.676
		S187.17,61.201,187.17,60.806z M187.361,62.758h1.046v6.199h-1.046V62.758z"/>
	<path fill="#3A404C" d="M189.607,62.758h1.084l1.174,3.521c0.179,0.612,0.383,1.237,0.574,1.824h0.051
		c0.179-0.587,0.383-1.212,0.562-1.824l1.173-3.521h1.033l-2.193,6.199h-1.225L189.607,62.758z"/>
	<path fill="#3A404C" d="M196.459,62.758h0.867l0.09,0.893h0.038c0.587-0.587,1.225-1.046,2.079-1.046
		c1.302,0,1.888,0.842,1.888,2.424v3.929h-1.046v-3.789c0-1.16-0.356-1.658-1.173-1.658c-0.639,0-1.072,0.332-1.697,0.957v4.49
		h-1.046V62.758z"/>
	<path fill="#3A404C" d="M203.247,60.806c0-0.408,0.319-0.676,0.728-0.676s0.727,0.268,0.727,0.676c0,0.396-0.318,0.676-0.727,0.676
		S203.247,61.201,203.247,60.806z M203.438,62.758h1.046v6.199h-1.046V62.758z"/>
	<path fill="#3A404C" d="M206.577,62.758h0.867l0.09,0.893h0.038c0.587-0.587,1.225-1.046,2.079-1.046
		c1.302,0,1.888,0.842,1.888,2.424v3.929h-1.046v-3.789c0-1.16-0.356-1.658-1.173-1.658c-0.639,0-1.072,0.332-1.697,0.957v4.49
		h-1.046V62.758z"/>
	<path fill="#3A404C" d="M213.99,68.74v-0.051c-0.306-0.191-0.548-0.523-0.548-1.008c0-0.523,0.356-0.932,0.676-1.148v-0.051
		c-0.408-0.332-0.804-0.932-0.804-1.671c0-1.353,1.071-2.207,2.334-2.207c0.345,0,0.651,0.063,0.881,0.153h2.155v0.804h-1.275
		c0.293,0.28,0.511,0.752,0.511,1.275c0,1.326-1.008,2.155-2.271,2.155c-0.306,0-0.65-0.076-0.931-0.217
		c-0.217,0.191-0.396,0.396-0.396,0.74c0,0.396,0.255,0.676,1.097,0.676h1.199c1.441,0,2.169,0.446,2.169,1.48
		c0,1.147-1.212,2.143-3.139,2.143c-1.518,0-2.563-0.6-2.563-1.671C213.085,69.62,213.43,69.123,213.99,68.74z M215.802,71.087
		c1.187,0,1.965-0.612,1.965-1.263c0-0.574-0.446-0.766-1.25-0.766h-1.072c-0.242,0-0.535-0.025-0.804-0.102
		c-0.446,0.319-0.638,0.688-0.638,1.046C214.003,70.666,214.68,71.087,215.802,71.087z M216.963,64.812
		c0-0.906-0.587-1.441-1.314-1.441c-0.727,0-1.313,0.535-1.313,1.441c0,0.905,0.6,1.479,1.313,1.479
		C216.363,66.291,216.963,65.717,216.963,64.812z"/>
</g>
<path fill="#27AE61" d="M72.331,20.676c3.988,0,7.138,1.994,8.975,4.147l-1.469,1.574c-1.837-2.1-4.357-3.517-7.505-3.517
	c-7.611,0-12.282,6.036-12.282,15.641c0,9.604,4.619,15.799,12.072,15.799c3.569,0,6.193-1.417,8.713-4.252l1.469,1.522
	c-2.677,3.044-5.827,4.934-10.288,4.934c-8.555,0-14.486-6.98-14.486-18.003C57.529,27.552,63.513,20.676,72.331,20.676z"/>
<path fill="#27AE61" d="M83.982,30.7h2.31v15.853c0,5.354,1.679,7.872,5.721,7.872c2.992,0,5.196-1.573,8.135-5.144V30.7h2.31
	v25.194h-1.942l-0.263-4.199h-0.105c-2.467,2.889-5.091,4.829-8.555,4.829c-5.196,0-7.61-3.148-7.61-9.657V30.7z"/>
<path fill="#27AE61" d="M104.767,31.33h1.995l0.21,4.671h0.158c1.68-3.096,4.146-5.301,7.137-5.301c0.946,0,1.681,0.104,2.521,0.525
	l-0.525,2.1c-0.84-0.315-1.312-0.42-2.31-0.42c-2.256,0-4.934,1.732-6.876,6.456v17.164h-2.309V31.33z"/>
<path fill="#27AE61" d="M132.952,40.096c0.104-3.831-0.998-7.977-5.933-7.977c-3.411,0-6.351,1.679-8.03,2.938l-1.05-1.731
	c1.785-1.26,5.249-3.255,9.344-3.255c5.982,0,7.977,4.304,7.977,9.709v16.114h-1.941l-0.264-3.254h-0.104
	c-2.573,2.047-5.617,3.884-8.924,3.884c-3.988,0-7.348-2.153-7.348-6.929C116.681,44.032,121.771,41.356,132.952,40.096z
	 M124.396,54.529c2.887,0,5.459-1.416,8.556-4.092V41.88c-10.341,1.208-13.857,3.622-13.857,7.611
	C119.095,53.113,121.509,54.529,124.396,54.529z"/>
<path fill="#3A404C" d="M152.267,20.833c4.145,0,7.398,1.995,9.395,4.251l-2.467,2.783c-1.785-1.943-3.989-3.202-6.876-3.202
	c-6.562,0-10.864,5.354-10.864,13.909c0,8.66,4.146,14.119,10.654,14.119c3.307,0,5.722-1.363,7.926-3.831l2.467,2.677
	c-2.73,3.149-6.09,4.986-10.497,4.986c-8.66,0-15.064-6.614-15.064-17.846C136.939,27.604,143.447,20.833,152.267,20.833z"/>
<path fill="#3A404C" d="M163.234,19.154h4.306v10.182l-0.158,5.249c2.414-2.309,4.985-4.198,8.503-4.198
	c5.354,0,7.768,3.464,7.768,9.972v16.167h-4.305v-15.59c0-4.775-1.469-6.823-4.829-6.823c-2.623,0-4.408,1.365-6.98,3.937v18.476
	h-4.306V19.154z"/>
<path fill="#3A404C" d="M200.973,39.729c0-3.254-1.102-6.403-5.249-6.403c-2.991,0-5.616,1.364-7.61,2.728l-1.732-2.991
	c2.361-1.523,5.932-3.308,10.025-3.308c6.247,0,8.871,4.147,8.871,10.498v15.641h-3.569l-0.367-3.043h-0.106
	c-2.467,1.992-5.301,3.673-8.45,3.673c-4.303,0-7.505-2.677-7.505-7.243C185.279,43.718,190.107,40.936,200.973,39.729z
	 M193.991,53.062c2.468,0,4.515-1.208,6.982-3.413v-7.086c-8.556,1.051-11.443,3.149-11.443,6.404
	C189.529,51.854,191.473,53.062,193.991,53.062z"/>
<path fill="#3A404C" d="M206.786,23.248h4.368v7.139h6.876v3.516h-6.876v14.172c0,3.148,0.997,4.934,3.936,4.934
	c0.894,0,2.048-0.367,2.888-0.683l0.84,3.254c-1.418,0.473-3.149,0.945-4.723,0.945c-5.46,0-7.299-3.463-7.299-8.503V33.902"/>
</svg>
