<?xml version="1.0" encoding="utf-8"?>
<!-- Generator: Adobe Illustrator 17.0.0, SVG Export Plug-In . SVG Version: 6.00 Build 0)  -->
<!DOCTYPE svg PUBLIC "-//W3C//DTD SVG 1.1//EN" "http://www.w3.org/Graphics/SVG/1.1/DTD/svg11.dtd">
<svg version="1.1" id="Layer_1" xmlns="http://www.w3.org/2000/svg" xmlns:xlink="http://www.w3.org/1999/xlink" x="0px" y="0px"
	 width="222.513px" height="72.238px" viewBox="0 0 222.513 72.238" enable-background="new 0 0 222.513 72.238"
	 xml:space="preserve">
<g>
	<g>
		<path fill="none" stroke="#3A404C" stroke-width="2" stroke-miterlimit="10" d="M1.458,28.46
			c0-14.806,10.689-26.984,26.244-26.984C43.251,1.477,54,13.135,54,28.088v0.005V57H30.18h-0.175
			C14.54,57,1.458,43.258,1.458,28.46z"/>
	</g>
	<g>
		<circle fill="#27AE61" cx="29.569" cy="21.863" r="3.518"/>
		<circle fill="#27AE61" cx="20.248" cy="23.831" r="3.518"/>
		<circle fill="#27AE61" cx="38.89" cy="23.831" r="3.518"/>
		<path fill="#3A404C" d="M41.574,28.616c0-0.411-0.334-0.616-0.746-0.616h-3.728c-0.412,0-0.746,0.205-0.746,0.616l-0.198,1.838
			c-0.427-0.262-0.246-0.141-0.791-0.572c-1.199-0.948-1.902-1.795-2.283-2.325l0.064-0.709c0-0.411-0.334-0.847-0.746-0.847h-5.666
			c-0.412,0-0.745,0.425-0.745,0.836l0.069,0.819c-0.445,0.53-1.178,1.297-2.317,2.138c-0.478,0.353-0.257,0.145-0.658,0.376
			l-0.153-1.556c0-0.413-0.334-0.612-0.746-0.612h-3.727c-0.412,0-0.746,0.205-0.746,0.616l-1.044,10.887
			c0,0.413,0.333,1.497,0.745,1.497h5.666c0.412,0,0.746-1.172,0.746-1.584l-0.498-6.059c0.463-0.531,0.528-0.97,1.603-1.762
			c0.472-0.346,0.912-0.75,1.376-0.996l0.578,6.6c0,0.412,0.334,0.801,0.746,0.801h3.728c0.412,0,0.746-0.441,0.746-0.853
			l0.689-6.749c0.454,0.265,0.927,0.566,1.404,0.945c1.239,0.979,1.294,1.351,1.668,1.883l-0.554,6.196
			c0,0.411,0.334,1.578,0.746,1.578h5.667c0.411,0,0.745-1.084,0.745-1.497L41.574,28.616z"/>
	</g>
</g>
<g>
	<path fill="#3A404C" d="M62.372,60.589h2.092c2.577,0,3.954,1.492,3.954,4.146c0,2.666-1.377,4.223-3.903,4.223h-2.143V60.589z
		 M64.387,68.09c1.952,0,2.934-1.237,2.934-3.355c0-2.104-0.982-3.278-2.934-3.278h-0.957v6.634H64.387z"/>
	<path fill="#3A404C" d="M69.925,60.806c0-0.408,0.319-0.676,0.727-0.676s0.728,0.268,0.728,0.676c0,0.396-0.319,0.676-0.728,0.676
		S69.925,61.201,69.925,60.806z M70.117,62.758h1.046v6.199h-1.046V62.758z"/>
	<path fill="#3A404C" d="M73.689,68.74v-0.051c-0.307-0.191-0.549-0.523-0.549-1.008c0-0.523,0.357-0.932,0.676-1.148v-0.051
		c-0.408-0.332-0.804-0.932-0.804-1.671c0-1.353,1.071-2.207,2.334-2.207c0.344,0,0.65,0.063,0.88,0.153h2.156v0.804h-1.276
		c0.293,0.28,0.51,0.752,0.51,1.275c0,1.326-1.008,2.155-2.271,2.155c-0.306,0-0.651-0.076-0.931-0.217
		c-0.217,0.191-0.396,0.396-0.396,0.74c0,0.396,0.255,0.676,1.097,0.676h1.199c1.441,0,2.168,0.446,2.168,1.48
		c0,1.147-1.211,2.143-3.138,2.143c-1.518,0-2.564-0.6-2.564-1.671C72.784,69.62,73.128,69.123,73.689,68.74z M75.5,71.087
		c1.187,0,1.964-0.612,1.964-1.263c0-0.574-0.446-0.766-1.25-0.766h-1.071c-0.243,0-0.536-0.025-0.804-0.102
		c-0.446,0.319-0.638,0.688-0.638,1.046C73.702,70.666,74.378,71.087,75.5,71.087z M76.662,64.812c0-0.906-0.587-1.441-1.314-1.441
		s-1.314,0.535-1.314,1.441c0,0.905,0.6,1.479,1.314,1.479S76.662,65.717,76.662,64.812z"/>
	<path fill="#3A404C" d="M79.495,60.806c0-0.408,0.319-0.676,0.728-0.676s0.727,0.268,0.727,0.676c0,0.396-0.319,0.676-0.727,0.676
		S79.495,61.201,79.495,60.806z M79.687,62.758h1.046v6.199h-1.046V62.758z"/>
	<path fill="#3A404C" d="M83.004,63.612h-0.918v-0.791l0.969-0.063l0.128-1.735h0.88v1.735h1.671v0.854h-1.671v3.444
		c0,0.765,0.243,1.199,0.957,1.199c0.217,0,0.498-0.09,0.702-0.166l0.204,0.791c-0.345,0.114-0.766,0.229-1.148,0.229
		c-1.327,0-1.773-0.842-1.773-2.066V63.612z"/>
	<path fill="#3A404C" d="M90.417,65.028c0-0.791-0.268-1.557-1.276-1.557c-0.727,0-1.365,0.332-1.85,0.663l-0.421-0.727
		c0.574-0.37,1.441-0.804,2.437-0.804c1.518,0,2.156,1.008,2.156,2.551v3.802h-0.868l-0.089-0.74H90.48
		c-0.6,0.485-1.288,0.894-2.054,0.894c-1.046,0-1.824-0.65-1.824-1.761C86.602,65.998,87.776,65.321,90.417,65.028z M88.72,68.269
		c0.6,0,1.097-0.294,1.697-0.829v-1.723c-2.08,0.255-2.781,0.766-2.781,1.557C87.635,67.975,88.107,68.269,88.72,68.269z"/>
	<path fill="#3A404C" d="M93.441,59.875h1.046v7.908c0,0.332,0.141,0.459,0.293,0.459c0.064,0,0.115,0,0.23-0.025l0.14,0.791
		c-0.14,0.064-0.319,0.103-0.6,0.103c-0.791,0-1.11-0.498-1.11-1.403V59.875z"/>
	<path fill="#3A404C" d="M99.272,62.758h0.868l0.089,1.122h0.038c0.421-0.778,1.059-1.275,1.76-1.275
		c0.268,0,0.459,0.038,0.664,0.128l-0.204,0.918c-0.204-0.063-0.345-0.102-0.6-0.102c-0.523,0-1.148,0.382-1.569,1.428v3.98h-1.046
		V62.758z"/>
	<path fill="#3A404C" d="M106.889,65.028c0-0.791-0.268-1.557-1.276-1.557c-0.727,0-1.365,0.332-1.85,0.663l-0.421-0.727
		c0.574-0.37,1.441-0.804,2.437-0.804c1.518,0,2.156,1.008,2.156,2.551v3.802h-0.868l-0.089-0.74h-0.026
		c-0.6,0.485-1.288,0.894-2.054,0.894c-1.046,0-1.824-0.65-1.824-1.761C103.075,65.998,104.249,65.321,106.889,65.028z
		 M105.192,68.269c0.6,0,1.097-0.294,1.697-0.829v-1.723c-2.08,0.255-2.781,0.766-2.781,1.557
		C104.108,67.975,104.58,68.269,105.192,68.269z M104.58,60.856c0-0.701,0.498-1.173,1.187-1.173c0.701,0,1.199,0.472,1.199,1.173
		c0,0.715-0.498,1.187-1.199,1.187C105.078,62.043,104.58,61.571,104.58,60.856z M106.379,60.856c0-0.421-0.268-0.701-0.612-0.701
		c-0.332,0-0.612,0.28-0.612,0.701c0,0.434,0.28,0.715,0.612,0.715C106.111,61.571,106.379,61.29,106.379,60.856z"/>
	<path fill="#3A404C" d="M112.159,62.604c0.714,0,1.186,0.268,1.734,0.714l-0.051-1.059v-2.385h1.059v9.082h-0.867l-0.09-0.728
		h-0.038c-0.484,0.473-1.147,0.881-1.875,0.881c-1.556,0-2.564-1.174-2.564-3.24C109.467,63.854,110.743,62.604,112.159,62.604z
		 M112.261,68.229c0.574,0,1.071-0.28,1.582-0.854v-3.24c-0.523-0.472-0.995-0.65-1.505-0.65c-0.996,0-1.786,0.957-1.786,2.373
		C110.552,67.337,111.177,68.229,112.261,68.229z"/>
	<path fill="#3A404C" d="M117.429,68.74v-0.051c-0.306-0.191-0.548-0.523-0.548-1.008c0-0.523,0.356-0.932,0.676-1.148v-0.051
		c-0.408-0.332-0.804-0.932-0.804-1.671c0-1.353,1.071-2.207,2.334-2.207c0.345,0,0.651,0.063,0.881,0.153h2.155v0.804h-1.275
		c0.293,0.28,0.51,0.752,0.51,1.275c0,1.326-1.007,2.155-2.271,2.155c-0.306,0-0.65-0.076-0.931-0.217
		c-0.217,0.191-0.396,0.396-0.396,0.74c0,0.396,0.255,0.676,1.097,0.676h1.199c1.441,0,2.169,0.446,2.169,1.48
		c0,1.147-1.212,2.143-3.139,2.143c-1.518,0-2.563-0.6-2.563-1.671C116.523,69.62,116.867,69.123,117.429,68.74z M119.24,71.087
		c1.187,0,1.965-0.612,1.965-1.263c0-0.574-0.446-0.766-1.25-0.766h-1.072c-0.242,0-0.535-0.025-0.804-0.102
		c-0.446,0.319-0.638,0.688-0.638,1.046C117.441,70.666,118.118,71.087,119.24,71.087z M120.401,64.812
		c0-0.906-0.587-1.441-1.314-1.441c-0.727,0-1.313,0.535-1.313,1.441c0,0.905,0.6,1.479,1.313,1.479
		C119.802,66.291,120.401,65.717,120.401,64.812z"/>
	<path fill="#3A404C" d="M123.234,60.806c0-0.408,0.319-0.676,0.728-0.676s0.727,0.268,0.727,0.676c0,0.396-0.318,0.676-0.727,0.676
		S123.234,61.201,123.234,60.806z M123.426,62.758h1.046v6.199h-1.046V62.758z"/>
	<path fill="#3A404C" d="M125.672,62.758h1.084l1.174,3.521c0.179,0.612,0.383,1.237,0.574,1.824h0.051
		c0.179-0.587,0.383-1.212,0.562-1.824l1.173-3.521h1.033l-2.193,6.199h-1.225L125.672,62.758z"/>
	<path fill="#3A404C" d="M132.523,62.758h0.867l0.09,0.893h0.038c0.587-0.587,1.225-1.046,2.079-1.046
		c1.302,0,1.888,0.842,1.888,2.424v3.929h-1.046v-3.789c0-1.16-0.356-1.658-1.173-1.658c-0.639,0-1.072,0.332-1.697,0.957v4.49
		h-1.046V62.758z"/>
	<path fill="#3A404C" d="M139.312,60.806c0-0.408,0.319-0.676,0.728-0.676s0.727,0.268,0.727,0.676c0,0.396-0.318,0.676-0.727,0.676
		S139.312,61.201,139.312,60.806z M139.503,62.758h1.046v6.199h-1.046V62.758z"/>
	<path fill="#3A404C" d="M142.642,62.758h0.867l0.09,0.893h0.038c0.587-0.587,1.225-1.046,2.079-1.046
		c1.302,0,1.888,0.842,1.888,2.424v3.929h-1.046v-3.789c0-1.16-0.356-1.658-1.173-1.658c-0.639,0-1.072,0.332-1.697,0.957v4.49
		h-1.046V62.758z"/>
	<path fill="#3A404C" d="M150.055,68.74v-0.051c-0.306-0.191-0.548-0.523-0.548-1.008c0-0.523,0.356-0.932,0.676-1.148v-0.051
		c-0.408-0.332-0.804-0.932-0.804-1.671c0-1.353,1.071-2.207,2.334-2.207c0.345,0,0.651,0.063,0.881,0.153h2.155v0.804h-1.275
		c0.293,0.28,0.511,0.752,0.511,1.275c0,1.326-1.008,2.155-2.271,2.155c-0.306,0-0.65-0.076-0.931-0.217
		c-0.217,0.191-0.396,0.396-0.396,0.74c0,0.396,0.255,0.676,1.097,0.676h1.199c1.441,0,2.169,0.446,2.169,1.48
		c0,1.147-1.212,2.143-3.139,2.143c-1.518,0-2.563-0.6-2.563-1.671C149.149,69.62,149.494,69.123,150.055,68.74z M151.866,71.087
		c1.187,0,1.965-0.612,1.965-1.263c0-0.574-0.446-0.766-1.25-0.766h-1.072c-0.242,0-0.535-0.025-0.804-0.102
		c-0.446,0.319-0.638,0.688-0.638,1.046C150.067,70.666,150.744,71.087,151.866,71.087z M153.027,64.812
		c0-0.906-0.587-1.441-1.314-1.441c-0.727,0-1.313,0.535-1.313,1.441c0,0.905,0.6,1.479,1.313,1.479
		C152.428,66.291,153.027,65.717,153.027,64.812z"/>
</g>
<g>
	<path fill="#27AE61" d="M76.026,21.151c3.988,0,7.138,1.994,8.975,4.147l-1.469,1.574c-1.837-2.1-4.357-3.517-7.505-3.517
		c-7.611,0-12.282,6.036-12.282,15.641c0,9.604,4.619,15.799,12.072,15.799c3.569,0,6.193-1.417,8.713-4.252l1.469,1.522
		C83.321,55.11,80.171,57,75.71,57c-8.555,0-14.486-6.98-14.486-18.003C61.224,28.027,67.208,21.151,76.026,21.151z"/>
	<path fill="#27AE61" d="M87.677,31.176h2.31v15.853c0,5.354,1.679,7.872,5.721,7.872c2.992,0,5.196-1.573,8.135-5.143V31.176h2.31
		V56.37h-1.942l-0.263-4.199h-0.105C101.376,55.06,98.752,57,95.288,57c-5.196,0-7.61-3.148-7.61-9.657V31.176z"/>
	<path fill="#27AE61" d="M108.461,31.806h1.995l0.21,4.671h0.158c1.68-3.096,4.146-5.301,7.137-5.301
		c0.946,0,1.681,0.104,2.521,0.525l-0.525,2.1c-0.84-0.315-1.312-0.42-2.31-0.42c-2.256,0-4.934,1.732-6.876,6.456V57h-2.309V31.806
		z"/>
	<path fill="#27AE61" d="M136.647,40.571c0.104-3.831-0.998-7.977-5.933-7.977c-3.411,0-6.351,1.679-8.03,2.938l-1.05-1.731
		c1.785-1.26,5.249-3.255,9.344-3.255c5.982,0,7.977,4.304,7.977,9.71V56.37h-1.941l-0.264-3.254h-0.104
		C134.074,55.163,131.03,57,127.723,57c-3.988,0-7.348-2.153-7.348-6.929C120.376,44.508,125.466,41.832,136.647,40.571z
		 M128.091,55.005c2.887,0,5.459-1.416,8.556-4.092v-8.558c-10.341,1.208-13.857,3.622-13.857,7.611
		C122.79,53.589,125.204,55.005,128.091,55.005z"/>
	<path fill="#3A404C" d="M155.961,21.309c4.145,0,7.398,1.995,9.395,4.252l-2.467,2.783c-1.785-1.943-3.989-3.202-6.876-3.202
		c-6.562,0-10.864,5.354-10.864,13.909c0,8.66,4.146,14.119,10.654,14.119c3.307,0,5.722-1.363,7.926-3.831l2.467,2.677
		c-2.73,3.149-6.09,4.986-10.497,4.986c-8.66,0-15.064-6.614-15.064-17.846C140.634,28.08,147.142,21.309,155.961,21.309z"/>
	<path fill="#3A404C" d="M166.929,19.629h4.306v10.182l-0.158,5.249c2.414-2.309,4.985-4.198,8.503-4.198
		c5.353,0,7.768,3.464,7.768,9.972V57h-4.305V41.41c0-4.775-1.469-6.823-4.829-6.823c-2.623,0-4.408,1.365-6.979,3.937V57h-4.306
		V19.629z"/>
	<path fill="#3A404C" d="M204.668,40.204c0-3.254-1.102-6.403-5.249-6.403c-2.991,0-5.616,1.364-7.61,2.728l-1.731-2.991
		c2.361-1.523,5.932-3.308,10.025-3.308c6.247,0,8.871,4.147,8.871,10.498V56.37h-3.569l-0.367-3.043h-0.106
		c-2.467,1.992-5.301,3.673-8.45,3.673c-4.303,0-7.505-2.677-7.505-7.243C188.974,44.193,193.802,41.411,204.668,40.204z
		 M197.686,53.537c2.468,0,4.515-1.208,6.981-3.413v-7.086c-8.556,1.051-11.443,3.149-11.443,6.404
		C193.224,52.329,195.168,53.537,197.686,53.537z"/>
	<path fill="#3A404C" d="M210.481,23.723h4.368v7.139h6.876v3.516h-6.876V48.55c0,3.148,0.997,4.934,3.937,4.934
		c0.894,0,2.048-0.367,2.888-0.683l0.84,3.254c-1.418,0.473-3.15,0.945-4.723,0.945c-5.46,0-7.299-3.463-7.299-8.503V34.378"/>
</g>
</svg>
