<?xml version="1.0" encoding="utf-8"?>
<!-- Generator: Adobe Illustrator 16.0.0, SVG Export Plug-In . SVG Version: 6.00 Build 0)  -->
<!DOCTYPE svg PUBLIC "-//W3C//DTD SVG 1.1//EN" "http://www.w3.org/Graphics/SVG/1.1/DTD/svg11.dtd">
<svg version="1.1" id="Layer_1" xmlns="http://www.w3.org/2000/svg" xmlns:xlink="http://www.w3.org/1999/xlink" x="0px" y="0px"
	 width="224.101px" height="74.353px" viewBox="0 0 224.101 74.353" enable-background="new 0 0 224.101 74.353"
	 xml:space="preserve">
<g>
	<g>
		<path fill="none" stroke="#3A404C" stroke-width="2" stroke-miterlimit="10" d="M1.458,28.46
			c0-14.806,10.689-26.984,26.244-26.984C43.251,1.477,54,13.135,54,28.088v0.005V57H30.18h-0.175
			C14.54,57,1.458,43.258,1.458,28.46z"/>
	</g>
	<g>
		<circle fill="#27AE61" cx="29.569" cy="21.863" r="3.518"/>
		<circle fill="#27AE61" cx="20.248" cy="23.831" r="3.518"/>
		<circle fill="#27AE61" cx="38.89" cy="23.831" r="3.518"/>
		<path fill="#3A404C" d="M41.574,28.616c0-0.411-0.334-0.616-0.746-0.616h-3.728c-0.412,0-0.746,0.205-0.746,0.616l-0.198,1.838
			c-0.427-0.262-0.246-0.141-0.791-0.572c-1.199-0.948-1.902-1.795-2.283-2.325l0.064-0.709c0-0.411-0.334-0.847-0.746-0.847h-5.666
			c-0.412,0-0.745,0.425-0.745,0.836l0.069,0.819c-0.445,0.53-1.178,1.297-2.317,2.138c-0.478,0.353-0.257,0.145-0.658,0.375
			l-0.153-1.556c0-0.413-0.334-0.612-0.746-0.612h-3.728c-0.412,0-0.746,0.205-0.746,0.616l-1.043,10.887
			c0,0.413,0.333,1.497,0.745,1.497h5.666c0.412,0,0.746-1.172,0.746-1.584l-0.498-6.059c0.463-0.531,0.528-0.97,1.603-1.762
			c0.472-0.346,0.912-0.75,1.376-0.996l0.578,6.6c0,0.412,0.334,0.801,0.746,0.801h3.728c0.412,0,0.746-0.441,0.746-0.853
			l0.689-6.749c0.454,0.265,0.927,0.566,1.404,0.945c1.239,0.979,1.294,1.351,1.668,1.883l-0.554,6.196
			c0,0.411,0.334,1.578,0.746,1.578h5.667c0.411,0,0.745-1.084,0.745-1.497L41.574,28.616z"/>
	</g>
</g>
<text transform="matrix(1 0 0 1 63.2236 70.957)" fill="#3A404C" font-family="'SourceSansPro-Regular'" font-size="12.7598">Digitalpædagogisk rådgivning</text>
<path fill="#27AE61" d="M75.331,20.676c3.988,0,7.138,1.994,8.975,4.147l-1.469,1.574c-1.837-2.1-4.357-3.517-7.505-3.517
	c-7.611,0-12.282,6.036-12.282,15.641c0,9.604,4.619,15.799,12.072,15.799c3.569,0,6.193-1.417,8.713-4.252l1.469,1.522
	c-2.677,3.044-5.827,4.934-10.288,4.934c-8.555,0-14.486-6.98-14.486-18.003C60.529,27.552,66.513,20.676,75.331,20.676z"/>
<path fill="#27AE61" d="M86.982,30.7h2.31v15.853c0,5.354,1.679,7.872,5.721,7.872c2.992,0,5.196-1.573,8.135-5.144V30.7h2.31
	v25.194h-1.942l-0.263-4.199h-0.105c-2.467,2.889-5.091,4.829-8.555,4.829c-5.196,0-7.61-3.148-7.61-9.657V30.7z"/>
<path fill="#27AE61" d="M107.767,31.33h1.995l0.209,4.671h0.158c1.68-3.096,4.146-5.301,7.137-5.301
	c0.946,0,1.681,0.104,2.521,0.525l-0.525,2.1c-0.84-0.315-1.312-0.42-2.31-0.42c-2.256,0-4.934,1.732-6.876,6.456v17.164h-2.309
	V31.33z"/>
<path fill="#27AE61" d="M135.952,40.096c0.104-3.831-0.998-7.977-5.933-7.977c-3.411,0-6.351,1.679-8.03,2.938l-1.05-1.731
	c1.785-1.26,5.249-3.255,9.344-3.255c5.982,0,7.977,4.304,7.977,9.709v16.114h-1.94l-0.264-3.254h-0.104
	c-2.573,2.047-5.617,3.884-8.924,3.884c-3.988,0-7.348-2.153-7.348-6.929C119.681,44.032,124.771,41.356,135.952,40.096z
	 M127.396,54.529c2.887,0,5.459-1.416,8.556-4.092V41.88c-10.341,1.208-13.857,3.622-13.857,7.611
	C122.095,53.113,124.509,54.529,127.396,54.529z"/>
<path fill="#3A404C" d="M155.267,20.833c4.145,0,7.398,1.995,9.395,4.251l-2.467,2.783c-1.785-1.943-3.989-3.202-6.876-3.202
	c-6.562,0-10.864,5.354-10.864,13.909c0,8.66,4.146,14.119,10.654,14.119c3.307,0,5.722-1.363,7.926-3.831l2.467,2.677
	c-2.729,3.149-6.09,4.986-10.497,4.986c-8.66,0-15.064-6.614-15.064-17.846C139.939,27.604,146.447,20.833,155.267,20.833z"/>
<path fill="#3A404C" d="M166.234,19.154h4.306v10.182l-0.158,5.249c2.414-2.309,4.985-4.198,8.503-4.198
	c5.354,0,7.769,3.464,7.769,9.972v16.167h-4.305v-15.59c0-4.775-1.469-6.823-4.829-6.823c-2.623,0-4.408,1.365-6.979,3.937v18.476
	h-4.306V19.154z"/>
<path fill="#3A404C" d="M203.973,39.729c0-3.254-1.102-6.403-5.249-6.403c-2.991,0-5.616,1.364-7.61,2.728l-1.731-2.991
	c2.361-1.523,5.932-3.308,10.024-3.308c6.247,0,8.871,4.147,8.871,10.499v15.641h-3.569l-0.367-3.043h-0.106
	c-2.467,1.992-5.301,3.673-8.45,3.673c-4.303,0-7.505-2.677-7.505-7.243C188.279,43.718,193.107,40.936,203.973,39.729z
	 M196.991,53.062c2.468,0,4.515-1.208,6.981-3.413v-7.086c-8.556,1.051-11.443,3.149-11.443,6.404
	C192.529,51.854,194.473,53.062,196.991,53.062z"/>
<path fill="#3A404C" d="M209.786,23.248h4.368v7.139h6.876v3.516h-6.876v14.172c0,3.148,0.997,4.934,3.937,4.934
	c0.894,0,2.048-0.367,2.888-0.683l0.84,3.254c-1.418,0.473-3.149,0.945-4.723,0.945c-5.46,0-7.299-3.463-7.299-8.503V33.902"/>
</svg>
