<?xml version="1.0" encoding="utf-8"?>
<!-- Generator: Adobe Illustrator 17.0.0, SVG Export Plug-In . SVG Version: 6.00 Build 0)  -->
<!DOCTYPE svg PUBLIC "-//W3C//DTD SVG 1.1//EN" "http://www.w3.org/Graphics/SVG/1.1/DTD/svg11.dtd">
<svg version="1.1" xmlns="http://www.w3.org/2000/svg" xmlns:xlink="http://www.w3.org/1999/xlink" x="0px" y="0px" width="100px"
	 height="100px" viewBox="0 0 100 100" enable-background="new 0 0 100 100" xml:space="preserve">
<g id="Vand">
</g>
<g id="Ører">
</g>
<g id="Kort_kant">
	<g>
		<polygon fill="#4C88A0" points="92,91.233 74.589,94.771 50.302,91.233 25.836,94.771 8,91.233 8,14.4 25.858,10.321 49.918,14.4 
			74.499,10.502 92,14.4 		"/>
		<path fill="#7AC573" d="M22.508,70.279c0.917,0.176,1.602,0.243,4.128,0.097c2.525-0.146,6.119,0.583,7.915,0.923
			c1.797,0.34,4.516,0.923,5.536,1.36c1.02,0.437,3.593,1.505,3.496,2.622c-0.097,1.117-0.68,3.254-1.214,4.225
			s-3.545,5.244-4.856,6.556s-3.982,3.691-4.953,4.225s-4.03,2.622-6.021,2.768c-1.991,0.146-4.322-0.34-5.973-2.525
			c-1.651-2.185-3.933-5.779-4.759-9.226s-1.505-7.575-1.068-9.032c0.437-1.457,0.923-1.942,1.991-2.185
			S20.225,69.842,22.508,70.279z"/>
		<path fill="#7AC573" d="M94.327,33.568c-0.194-0.34-2.088-2.088-2.768-2.525c-0.68-0.437-6.701-3.496-8.012-3.739
			c-1.311-0.243-9.469-2.331-10.974-2.04c-1.505,0.291-3.399,1.894-3.836,2.379c-0.437,0.486-5.342,9.178-6.313,11.363
			c-0.971,2.185-2.914,7.867-3.205,10.246c-0.291,2.379,2.331,8.886,3.933,10.537c1.602,1.651,7.284,7.527,10.489,7.77
			s5.681-3.205,7.867-5.876c2.185-2.671,10.149-15.054,12.48-22.095C96.318,32.548,94.327,33.568,94.327,33.568z"/>
		<path fill="#7AC573" d="M25.324,44.008c0,0,9.858,3.642,11.654,5.973c1.797,2.331,6.701,7.478,8.935,9.469
			s6.049,5.584,4.044,8.207s-3.219,2.83-7.735,2.265s-9.858-1.197-12.626-1.294c-2.768-0.097-12.723-2.282-15.588-5.05
			s-4.516-5.584-4.176-8.304c0.34-2.719,1.457-6.19,4.565-7.393c3.108-1.202,3.253-2.125,4.613-2.805
			C20.371,44.397,23.527,43.717,25.324,44.008z"/>
		<path fill="#7AC573" d="M49.957,31.577c1.477-0.456,1.735-2.525,1.298-3.642s-1.165-1.311-2.379-1.554
			c-1.214-0.243-1.894-0.34-2.962,0s-2.04,0.971-2.379,1.991c-0.34,1.02-0.194,3.011,0.437,3.399
			c0.631,0.388,1.403,1.748,3.397,1.214C49.361,32.451,49.485,31.722,49.957,31.577z"/>
		<path fill="#7AC573" d="M22.459,11.23c0,0,1.651-0.874,1.797-0.923c0.146-0.049,3.302-0.34,3.302-0.34l2.282,0.291l4.322,0.583
			c0,0,4.03,0.097,4.37,0.388c0.34,0.291,3.545,1.602,3.545,1.602s0.049-0.34,0.194,1.214s0.097,3.739-0.291,4.807
			s-1.117,3.253-2.185,3.933s-3.108,1.02-4.419,0.971c-1.311-0.049-3.593-0.728-4.905-0.923s-2.477-0.631-2.962-0.631
			c-0.486,0-2.04-0.049-2.816-0.291c-0.777-0.243-1.845-1.068-2.137-1.942c-0.291-0.874-0.437-1.991-0.437-2.768
			C22.119,16.426,22.605,11.619,22.459,11.23z"/>
		<path fill="#7AC573" d="M75.716,85.171c1.17-0.468,2.73-1.456,3.119-2.418c0.39-0.962,0.494-1.612-0.104-2.626
			s-2.652-2.314-3.951-2.496s-4.081-0.182-4.965-0.13c-0.884,0.052-2.626,0.416-2.807,1.144s-0.286,1.82,1.222,3.379
			c1.508,1.56,3.821,3.431,4.913,3.561C74.235,85.717,75.716,85.171,75.716,85.171z"/>
		<path fill="#FFFFFF" d="M74.57,7.05l-24.666,4.038L25.851,7.05L4,11.088v83.457l21.877,4.038l24.399-4.038l24.208,4.038L96,94.545
			V11.088L74.57,7.05z M92,91.233l-17.411,3.538l-24.287-3.538l-24.465,3.538L8,91.233V14.4l17.858-4.079L49.918,14.4l24.581-3.898
			L92,14.4V91.233z"/>
	</g>
</g>
<g id="Nål">
	<g>
		<path fill="#E64942" d="M50.447,1.345c-11.952,0-21.641,9.689-21.641,21.641s21.641,38.952,21.641,38.952s21.641-27,21.641-38.952
			S62.399,1.345,50.447,1.345z M50.447,34.655c-5.498,0-9.954-4.456-9.954-9.954c0-5.497,4.456-9.955,9.954-9.955
			c5.499,0,9.955,4.458,9.955,9.955C60.402,30.199,55.946,34.655,50.447,34.655z"/>
		<circle fill="none" stroke="#C03831" stroke-width="2" stroke-miterlimit="10" cx="50.447" cy="24.701" r="10.388"/>
	</g>
</g>
</svg>
