<?xml version="1.0" encoding="utf-8"?>
<!-- Generator: Adobe Illustrator 16.0.0, SVG Export Plug-In . SVG Version: 6.00 Build 0)  -->
<!DOCTYPE svg PUBLIC "-//W3C//DTD SVG 1.1//EN" "http://www.w3.org/Graphics/SVG/1.1/DTD/svg11.dtd">
<svg version="1.1" id="Layer_1" xmlns="http://www.w3.org/2000/svg" xmlns:xlink="http://www.w3.org/1999/xlink" x="0px" y="0px"
	 width="253px" height="253px" viewBox="0 0 253 253" enable-background="new 0 0 253 253" xml:space="preserve">
<g>
	<g>
		<path fill="#25AD60" d="M160.364,46.994c0,18.321-14.848,33.168-33.176,33.168c-18.325,0-33.173-14.848-33.173-33.168
			c0-18.324,14.848-33.176,33.173-33.176C145.517,13.818,160.364,28.669,160.364,46.994z"/>
		<path fill="#25AD60" d="M72.453,65.558c0,18.329-14.861,33.179-33.176,33.179c-18.33,0-33.177-14.85-33.177-33.179
			c0-18.315,14.848-33.172,33.177-33.172C57.591,32.386,72.453,47.243,72.453,65.558z"/>
		<path fill="#25AD60" d="M248.291,65.558c0,18.329-14.857,33.179-33.177,33.179c-18.329,0-33.178-14.85-33.178-33.179
			c0-18.315,14.849-33.172,33.178-33.172C233.434,32.386,248.291,47.243,248.291,65.558z"/>
		<path fill="#3A404C" d="M240.425,110.419c0-3.878-3.148-6.085-7.037-6.085H198.24c-3.887,0-7.037,2.207-7.037,6.085l-1.877,17.47
			c-4.019-2.478-2.314-1.26-7.455-5.33c-11.311-8.945-17.933-16.895-21.533-21.898l0.6-6.512c0-3.878-3.15-7.816-7.028-7.816
			h-53.437c-3.887,0-7.028,3.852-7.028,7.732l0.649,7.642c-4.196,5.001-11.109,12.197-21.858,20.124
			c-4.502,3.322-2.421,1.34-6.202,3.516l-1.447-14.956c0-3.892-3.149-6.059-7.03-6.059H22.398c-3.882,0-7.034,2.207-7.034,6.085
			L5.523,213.66c0,3.894,3.146,14.674,7.028,14.674h53.44c3.883,0,7.033-11.474,7.033-15.357l-4.693-57.355
			c4.37-5.014,4.983-9.251,15.115-16.722c4.449-3.27,8.602-7.128,12.979-9.448l5.448,61.787c0,3.886,3.155,7.096,7.033,7.096h35.156
			c3.889,0,7.038-3.732,7.038-7.609l6.501-63.439c4.275,2.495,8.744,5.448,13.247,9.025c11.679,9.229,12.194,12.784,15.731,17.812
			l-5.231,58.88c0,3.878,3.148,15.332,7.035,15.332h53.442c3.887,0,7.036-10.78,7.036-14.674L240.425,110.419z"/>
	</g>
</g>
</svg>
